<svg xmlns="http://www.w3.org/2000/svg" xmlns:xlink="http://www.w3.org/1999/xlink" version="1.1" x="0px" y="0px" viewBox="0 0 160 200" style="enable-background:new 0 0 160 160;" xml:space="preserve">
<style>
  /* Force all painted shapes to yellow; preserves transparency ('none'/'transparent') */
  *:not([fill="none"]):not([fill="transparent"]) { fill: #FFD24A !important; }
  *:not([stroke="none"]) { stroke: #FFD24A !important; }
</style>
<path d="M153.4,34.3c-1.1-1.9-2.8-3.2-4.9-3.7s-4.2-0.3-6.1,0.8l-40.8,23.6c-0.7,0.4-1.5,0.5-2.2,0.3c-0.8-0.2-1.4-0.7-1.8-1.4  c-0.8-1.4-0.3-3.2,1.1-4l17.5-10.1c2.4-1.4,3.2-4.5,1.8-6.9c-0.7-1.2-1.8-2-3-2.3c-1.3-0.4-2.6-0.2-3.8,0.5L17.4,85.3  c-5.7,3.3-9.6,8.6-11.2,14.9c-1.6,6.3-0.5,12.9,2.9,18.5c4.4,7.1,12.3,11,20.4,11c4.2,0,8.4-1.1,12.3-3.3l93.3-54  c2.4-1.4,3.2-4.5,1.8-6.9c-0.7-1.2-1.8-2-3-2.3c-1.3-0.3-2.6-0.2-3.8,0.5l-17.5,10.1c-0.7,0.4-1.5,0.5-2.2,0.3  c-0.8-0.2-1.4-0.7-1.8-1.4c-0.8-1.4-0.3-3.2,1.1-4l40.8-23.6C154.3,43,155.6,38.1,153.4,34.3z M72.4,70.5l3.4-2  c0.7-0.4,1.6-0.2,2,0.5c0.4,0.7,0.2,1.6-0.5,2.1l-3.4,1.9c-0.2,0.1-0.5,0.2-0.8,0.2c-0.5,0-1-0.3-1.3-0.8  C71.4,71.9,71.7,70.9,72.4,70.5z M59.2,69.3l1.2-0.7c0.7-0.4,1.6-0.2,2.1,0.5c0.4,0.7,0.2,1.6-0.6,2l-1.2,0.7  c-0.2,0.1-0.5,0.2-0.8,0.2c-0.5,0-1-0.3-1.3-0.8C58.3,70.6,58.5,69.7,59.2,69.3z M68.9,102.6l-31.1,18c-2.6,1.5-5.5,2.3-8.4,2.3  c-1.5,0-2.9-0.2-4.4-0.6c-4.3-1.2-8-4-10.2-7.9c-4.6-8.1-1.9-18.4,6.2-23l31.1-18c0.7-0.4,1.6-0.2,2,0.5c0.4,0.7,0.2,1.6-0.5,2  L30.7,89.2c1,0.1,2,0.2,3,0.5C34.9,90,36,90.5,37,91l28.2-16.3c0.7-0.4,1.6-0.2,2,0.6c0.4,0.7,0.2,1.6-0.5,2L39.9,92.8  c1.3,1,2.4,2.2,3.3,3.5l39.8-23c0.7-0.4,1.6-0.2,2,0.6c0.4,0.7,0.2,1.6-0.5,2l-39.8,23c0.7,1.5,1.2,3,1.4,4.6L72.9,88  c0.7-0.4,1.6-0.2,2,0.6c0.4,0.7,0.2,1.6-0.5,2l-28.2,16.3c-0.1,2.2-0.7,4.4-1.6,6.3L67.4,100c0.7-0.4,1.6-0.2,2.1,0.5  C69.8,101.3,69.6,102.2,68.9,102.6z M77.3,97.8l-1.2,0.7c-0.2,0.1-0.5,0.2-0.8,0.2c-0.5,0-1-0.3-1.3-0.8c-0.4-0.7-0.2-1.6,0.5-2.1  l1.2-0.7c0.7-0.4,1.6-0.2,2,0.6C78.3,96.4,78,97.4,77.3,97.8z M84.9,84.5l-3.4,1.9c-0.2,0.1-0.5,0.2-0.8,0.2c-0.5,0-1-0.3-1.3-0.8  c-0.4-0.7-0.2-1.6,0.5-2l3.4-2c0.7-0.4,1.6-0.2,2.1,0.5C85.9,83.1,85.7,84.1,84.9,84.5z M97.7,68.2l-6.1,3.5  c-0.2,0.1-0.5,0.2-0.8,0.2c-0.5,0-1-0.3-1.3-0.8c-0.4-0.7-0.2-1.6,0.6-2l6.1-3.5c0.7-0.4,1.6-0.2,2.1,0.5  C98.7,66.9,98.4,67.8,97.7,68.2z"/></svg>
